<svg width="60" height="60" viewBox="0 0 60 60" fill="none" xmlns="http://www.w3.org/2000/svg">
<path d="M39.5745 50.3125C39.5745 50.7269 39.4099 51.1243 39.1168 51.4173C38.8238 51.7104 38.4264 51.875 38.012 51.875H22.387C21.9726 51.875 21.5751 51.7104 21.2821 51.4173C20.9891 51.1243 20.8245 50.7269 20.8245 50.3125C20.8245 49.8981 20.9891 49.5007 21.2821 49.2076C21.5751 48.9146 21.9726 48.75 22.387 48.75H38.012C38.4264 48.75 38.8238 48.9146 39.1168 49.2076C39.4099 49.5007 39.5745 49.8981 39.5745 50.3125ZM47.387 25.3125C47.3937 27.9173 46.8053 30.4891 45.6666 32.8318C44.5279 35.1745 42.8691 37.2261 40.8167 38.8301C40.4329 39.1242 40.1215 39.5022 39.9062 39.9352C39.6909 40.3681 39.5774 40.8446 39.5745 41.3281V42.5C39.5745 43.3288 39.2452 44.1236 38.6592 44.7097C38.0731 45.2957 37.2783 45.625 36.4495 45.625H23.9495C23.1207 45.625 22.3258 45.2957 21.7398 44.7097C21.1537 44.1236 20.8245 43.3288 20.8245 42.5V41.3281C20.8242 40.8504 20.7143 40.3791 20.5034 39.9504C20.2924 39.5218 19.986 39.1472 19.6077 38.8555C17.5607 37.2612 15.9031 35.2223 14.7604 32.8929C13.6177 30.5635 13.0198 28.0047 13.012 25.4101C12.9612 16.0996 20.4846 8.34959 29.7854 8.12498C32.0771 8.06976 34.3567 8.47353 36.49 9.31252C38.6233 10.1515 40.5673 11.4088 42.2074 13.0103C43.8475 14.6119 45.1507 16.5253 46.0402 18.638C46.9297 20.7508 47.3876 23.0201 47.387 25.3125ZM44.262 25.3125C44.2625 23.4368 43.8878 21.58 43.16 19.8513C42.4321 18.1227 41.3658 16.5571 40.0237 15.2467C38.6817 13.9363 37.0911 12.9077 35.3455 12.2213C33.6 11.5349 31.7347 11.2047 29.8596 11.25C22.2424 11.4297 16.096 17.7715 16.137 25.3887C16.144 27.5109 16.6336 29.6038 17.5689 31.5089C18.5042 33.4139 19.8606 35.0813 21.5354 36.3848C22.2882 36.97 22.8972 37.7197 23.3156 38.5765C23.734 39.4334 23.9508 40.3746 23.9495 41.3281V42.5H28.637V33.7715L22.844 27.9805C22.5508 27.6873 22.3861 27.2896 22.3861 26.875C22.3861 26.4604 22.5508 26.0627 22.844 25.7695C23.1372 25.4763 23.5348 25.3116 23.9495 25.3116C24.3641 25.3116 24.7618 25.4763 25.0549 25.7695L30.1995 30.916L35.344 25.7695C35.4892 25.6243 35.6615 25.5092 35.8512 25.4306C36.0409 25.3521 36.2442 25.3116 36.4495 25.3116C36.6548 25.3116 36.8581 25.3521 37.0478 25.4306C37.2374 25.5092 37.4098 25.6243 37.5549 25.7695C37.7001 25.9147 37.8153 26.087 37.8938 26.2767C37.9724 26.4664 38.0128 26.6697 38.0128 26.875C38.0128 27.0803 37.9724 27.2836 37.8938 27.4733C37.8153 27.6629 37.7001 27.8353 37.5549 27.9805L31.762 33.7715V42.5H36.4495V41.3281C36.4512 40.3718 36.6716 39.4285 37.0937 38.5704C37.5158 37.7122 38.1285 36.962 38.885 36.3769C40.5649 35.0641 41.9226 33.3848 42.8545 31.4672C43.7864 29.5496 44.2678 27.4445 44.262 25.3125Z" fill="#19184A"/>
</svg>
