<svg width="39" height="40" viewBox="0 0 39 40" fill="none" xmlns="http://www.w3.org/2000/svg">
<path d="M34.9297 0.25H4.07031C3.18971 0.25 2.34518 0.599817 1.7225 1.2225C1.09982 1.84518 0.75 2.68971 0.75 3.57031V13.1816C0.750823 13.8197 0.935473 14.444 1.28185 14.9798C1.62823 15.5157 2.12167 15.9404 2.70312 16.2031L14.9297 21.7598C13.1193 22.7728 11.6961 24.3577 10.883 26.2663C10.0699 28.1748 9.91271 30.2991 10.4362 32.3065C10.9597 34.3139 12.1342 36.091 13.7758 37.3594C15.4173 38.6278 17.4333 39.3159 19.5078 39.3159C21.5823 39.3159 23.5983 38.6278 25.2399 37.3594C26.8815 36.091 28.056 34.3139 28.5794 32.3065C29.1029 30.2991 28.9458 28.1748 28.1326 26.2663C27.3195 24.3577 25.8963 22.7728 24.0859 21.7598L36.2969 16.2031C36.8783 15.9404 37.3718 15.5157 37.7181 14.9798C38.0645 14.444 38.2492 13.8197 38.25 13.1816V3.57031C38.25 2.68971 37.9002 1.84518 37.2775 1.2225C36.6548 0.599817 35.8103 0.25 34.9297 0.25ZM25.75 3.375V17.5684L19.5 20.4082L13.25 17.5684V3.375H25.75ZM3.875 13.1816V3.57031C3.875 3.51851 3.89558 3.46883 3.93221 3.43221C3.96883 3.39558 4.01851 3.375 4.07031 3.375H10.125V16.1465L3.99023 13.3594C3.95597 13.344 3.92687 13.319 3.90643 13.2875C3.88599 13.256 3.87508 13.2192 3.875 13.1816ZM19.5 36.1875C18.2639 36.1875 17.0555 35.8209 16.0277 35.1342C14.9999 34.4474 14.1988 33.4713 13.7258 32.3293C13.2527 31.1872 13.1289 29.9306 13.3701 28.7182C13.6112 27.5058 14.2065 26.3922 15.0806 25.5181C15.9547 24.644 17.0683 24.0487 18.2807 23.8076C19.4931 23.5664 20.7497 23.6902 21.8918 24.1632C23.0338 24.6363 24.0099 25.4374 24.6967 26.4652C25.3834 27.493 25.75 28.7014 25.75 29.9375C25.75 31.5951 25.0915 33.1848 23.9194 34.3569C22.7473 35.529 21.1576 36.1875 19.5 36.1875ZM35.125 13.1816C35.1249 13.2192 35.114 13.256 35.0936 13.2875C35.0731 13.319 35.044 13.344 35.0098 13.3594L28.875 16.1465V3.375H34.9297C34.9815 3.375 35.0312 3.39558 35.0678 3.43221C35.1044 3.46883 35.125 3.51851 35.125 3.57031V13.1816Z" fill="#19184A"/>
</svg>
