<svg width="44" height="43" viewBox="0 0 44 43" fill="none" xmlns="http://www.w3.org/2000/svg">
<path d="M43.7168 16.0019C43.5276 15.4187 43.171 14.904 42.6914 14.522C42.2118 14.14 41.6304 13.9075 41.0196 13.8535L29.42 12.8535L24.8731 2.04099C24.6364 1.47364 24.2371 0.989015 23.7255 0.648136C23.2139 0.307257 22.6129 0.125366 21.9981 0.125366C21.3833 0.125366 20.7823 0.307257 20.2707 0.648136C19.7591 0.989015 19.3598 1.47364 19.1231 2.04099L14.5899 12.8535L2.97661 13.8594C2.36339 13.9109 1.77904 14.1423 1.29684 14.5246C0.814629 14.9069 0.456028 15.4231 0.266004 16.0084C0.0759803 16.5937 0.062992 17.2221 0.228668 17.8147C0.394345 18.4074 0.73131 18.9379 1.19731 19.3398L10.0079 27.039L7.36723 38.4726C7.2276 39.071 7.26744 39.6972 7.48178 40.273C7.69611 40.8488 8.07543 41.3486 8.5723 41.71C9.06917 42.0714 9.66155 42.2783 10.2754 42.3049C10.8892 42.3315 11.4973 42.1765 12.0235 41.8593L21.9844 35.8047L31.9668 41.8593C32.4931 42.1765 33.1011 42.3315 33.7149 42.3049C34.3288 42.2783 34.9212 42.0714 35.418 41.71C35.9149 41.3486 36.2942 40.8488 36.5085 40.273C36.7229 39.6972 36.7627 39.071 36.6231 38.4726L33.9844 27.0273L42.793 19.3398C43.2589 18.9365 43.5953 18.4045 43.7596 17.8106C43.924 17.2167 43.9091 16.5874 43.7168 16.0019ZM40.7442 16.9785L31.9356 24.666C31.5069 25.0389 31.188 25.5217 31.0131 26.0623C30.8383 26.6029 30.8142 27.181 30.9434 27.7343L33.5899 39.1875L23.6153 33.1328C23.1286 32.8364 22.5698 32.6797 22 32.6797C21.4303 32.6797 20.8715 32.8364 20.3848 33.1328L10.4239 39.1875L13.0528 27.7422C13.182 27.1888 13.1579 26.6108 12.983 26.0701C12.8082 25.5295 12.4893 25.0467 12.0606 24.6738L3.24809 16.9902C3.24738 16.9844 3.24738 16.9785 3.24809 16.9726L14.8575 15.9687C15.4243 15.9188 15.9667 15.715 16.4262 15.3794C16.8857 15.0438 17.2448 14.5891 17.4649 14.0644L21.9981 3.2656L26.5293 14.0644C26.7494 14.5891 27.1086 15.0438 27.5681 15.3794C28.0276 15.715 28.57 15.9188 29.1368 15.9687L40.7481 16.9726V16.9863L40.7442 16.9785Z" fill="#19184A"/>
</svg>
